<svg xmlns="http://www.w3.org/2000/svg" viewBox="0 0 900 700" preserveAspectRatio="xMidYMid slice">
  <defs>
    <linearGradient id="bg2" x1="0" y1="0" x2="1" y2="1">
      <stop offset="0%" stop-color="#fff7f0" />
      <stop offset="100%" stop-color="#ffe3aa" />
    </linearGradient>
    <linearGradient id="accent2" x1="0" y1="0" x2="0" y2="1">
      <stop offset="0%" stop-color="#ffb568" />
      <stop offset="100%" stop-color="#ff7a00" />
    </linearGradient>
  </defs>
  <rect width="900" height="700" rx="50" fill="url(#bg2)" />
  <rect x="100" y="140" width="500" height="420" rx="36" fill="#fff" opacity="0.95" />
  <path d="M180 180h420v240l-108 90-102-88-102 88V180Z" fill="url(#accent2)" opacity="0.92" />
  <rect x="220" y="320" width="280" height="36" rx="18" fill="#ff7a00" />
  <rect x="220" y="380" width="320" height="22" rx="11" fill="#ffb347" />
  <rect x="220" y="420" width="240" height="20" rx="10" fill="#ffd963" />
  <rect x="220" y="460" width="180" height="20" rx="10" fill="#ffe7b5" />
  <circle cx="700" cy="190" r="82" fill="#fff4d8" />
  <path d="M720 520c-18-34-48-76-98-68-28 5-58 28-68 56" fill="none" stroke="#ff7a00" stroke-width="24" stroke-linecap="round" opacity="0.8" />
</svg>
