<svg xmlns="http://www.w3.org/2000/svg" viewBox="0 0 900 700" preserveAspectRatio="xMidYMid slice">
  <defs>
    <linearGradient id="bg1" x1="0" y1="0" x2="1" y2="1">
      <stop offset="0%" stop-color="#fff4e6" />
      <stop offset="100%" stop-color="#ffd9a8" />
    </linearGradient>
    <linearGradient id="orange-glow" x1="0" y1="0" x2="1" y2="1">
      <stop offset="0%" stop-color="#ffbf74" />
      <stop offset="100%" stop-color="#ff7a00" />
    </linearGradient>
  </defs>
  <rect width="900" height="700" rx="50" fill="url(#bg1)" />
  <rect x="80" y="80" width="520" height="520" rx="40" fill="#fff" opacity="0.92" />
  <path d="M190 120h420v160l-110 120-110-100-120 100V120Z" fill="url(#orange-glow)" opacity="0.95" />
  <rect x="180" y="320" width="320" height="220" rx="28" fill="#fff7eb" />
  <rect x="210" y="360" width="260" height="26" rx="12" fill="#ff7a00" />
  <rect x="210" y="410" width="220" height="22" rx="11" fill="#ffb347" />
  <rect x="210" y="455" width="180" height="18" rx="9" fill="#ffeb99" />
  <circle cx="660" cy="170" r="70" fill="#fff5e4" />
  <circle cx="660" cy="170" r="38" fill="#ff7a00" opacity="0.8" />
  <path d="M540 500c18-26 60-70 110-56 30 8 56 34 68 64" fill="none" stroke="#ff7a00" stroke-width="26" stroke-linecap="round" opacity="0.8" />
</svg>
